HIERARCHY
ROOT Hips
{
  OFFSET -4.35178 90.3298 111.633
  CHANNELS 6 Xposition Yposition Zposition Zrotation Xrotation Yrotation
  JOINT LeftUpLeg
  {
    OFFSET 0.103456 1.85784 10.5485
    CHANNELS 6 Xposition Yposition Zposition Zrotation Xrotation Yrotation
    JOINT LeftLeg
    {
      OFFSET 43.5 -4.2e-05 0
      CHANNELS 6 Xposition Yposition Zposition Zrotation Xrotation Yrotation
      JOINT LeftFoot
      {
        OFFSET 42.3722 1.9e-05 0
        CHANNELS 6 Xposition Yposition Zposition Zrotation Xrotation Yrotation
        JOINT LeftToe
        {
          OFFSET 17.3 0 0
          CHANNELS 6 Xposition Yposition Zposition Zrotation Xrotation Yrotation
          End Site
          {
            OFFSET 0 0 0
          }
        }
      }
    }
  }
  JOINT RightUpLeg
  {
    OFFSET 0.103456 1.85782 -10.5485
    CHANNELS 6 Xposition Yposition Zposition Zrotation Xrotation Yrotation
    JOINT RightLeg
    {
      OFFSET 43.5 -2.7e-05 0
      CHANNELS 6 Xposition Yposition Zposition Zrotation Xrotation Yrotation
      JOINT RightFoot
      {
        OFFSET 42.3723 0 0
        CHANNELS 6 Xposition Yposition Zposition Zrotation Xrotation Yrotation
        JOINT RightToe
        {
          OFFSET 17.3 0 1.7e-05
          CHANNELS 6 Xposition Yposition Zposition Zrotation Xrotation Yrotation
          End Site
          {
            OFFSET 0 0 0
          }
        }
      }
    }
  }
  JOINT Spine
  {
    OFFSET 6.90197 -2.60373 0
    CHANNELS 6 Xposition Yposition Zposition Zrotation Xrotation Yrotation
    JOINT Spine1
    {
      OFFSET 12.5881 0 0
      CHANNELS 6 Xposition Yposition Zposition Zrotation Xrotation Yrotation
      JOINT Spine2
      {
        OFFSET 12.3432 -1.8e-05 0
        CHANNELS 6 Xposition Yposition Zposition Zrotation Xrotation Yrotation
        JOINT Neck
        {
          OFFSET 25.8329 2.3e-05 0
          CHANNELS 6 Xposition Yposition Zposition Zrotation Xrotation Yrotation
          JOINT Head
          {
            OFFSET 11.7666 0 0
            CHANNELS 6 Xposition Yposition Zposition Zrotation Xrotation Yrotation
            End Site
            {
              OFFSET 0 0 0
            }
          }
        }
        JOINT LeftShoulder
        {
          OFFSET 19.7459 -1.48035 6.0001
          CHANNELS 6 Xposition Yposition Zposition Zrotation Xrotation Yrotation
          JOINT LeftArm
          {
            OFFSET 11.2841 1.8e-05 -2e-05
            CHANNELS 6 Xposition Yposition Zposition Zrotation Xrotation Yrotation
            JOINT LeftForeArm
            {
              OFFSET 33 -1.3e-05 1.9e-05
              CHANNELS 6 Xposition Yposition Zposition Zrotation Xrotation Yrotation
              JOINT LeftHand
              {
                OFFSET 25.2 3.2e-05 1.1e-05
                CHANNELS 6 Xposition Yposition Zposition Zrotation Xrotation Yrotation
                End Site
                {
                  OFFSET 0 0 0
                }
              }
            }
          }
        }
        JOINT RightShoulder
        {
          OFFSET 19.7461 -1.48036 -6.00008
          CHANNELS 6 Xposition Yposition Zposition Zrotation Xrotation Yrotation
          JOINT RightArm
          {
            OFFSET 11.2841 0 0
            CHANNELS 6 Xposition Yposition Zposition Zrotation Xrotation Yrotation
            JOINT RightForeArm
            {
              OFFSET 33.0001 1.6e-05 0
              CHANNELS 6 Xposition Yposition Zposition Zrotation Xrotation Yrotation
              JOINT RightHand
              {
                OFFSET 25.1998 0.000123 0.000432
                CHANNELS 6 Xposition Yposition Zposition Zrotation Xrotation Yrotation
                End Site
                {
                  OFFSET 0 0 0
                }
              }
            }
          }
        }
      }
    }
  }
}
MOTION
Frames:	5
Frame Time:	0.0333333
-3.07523 90.071 -0.886387 49.4254 -81.4157 -38.4523 0.103456 1.85784 10.5485 1.48219 4.27419 -176.591 43.5 -4.2e-05 1e-05 -19.1039 -5.42033 -2.76244 42.3722 1.9e-05 0 76.6311 -1.10831 -2.85313 17.3 1.77636e-15 3e-06 21.4546 -1e-06 0.003093 0.103456 1.85782 -10.5485 10.5512 -3.22766 175.582 43.5 -2.7e-05 4e-06 -6.0431 11.6753 3.52508 42.3723 -1.77636e-15 1e-05 82.6002 13.2435 -10.6874 17.3 -6e-06 1.7e-05 21.4546 -1.9e-05 -0.003116 6.90197 -2.60373 -3e-06 7.35678 0.549013 0.488385 12.5881 1e-05 8e-06 4.69056 1.22573 0.927868 12.3432 -1.8e-05 -5e-06 4.35051 1.34854 0.861173 25.8329 2.3e-05 7e-06 4.68926 -3.98304 0.170553 11.7666 -8e-06 -6e-06 -28.8956 -13.2785 8.89515 19.7459 -1.48035 6.0001 172.165 -9.66539 -104.928 11.2841 1.8e-05 -2e-05 -6.84979 -37.2437 26.74 33 -1.3e-05 1.9e-05 -12.6043 8.57913 -17.9221 25.2 3.2e-05 1.1e-05 -0.255369 29.2626 3.28722 19.7461 -1.48036 -6.00008 -170.457 -5.67446 79.5615 11.2841 7.10543e-15 -1e-06 29.4781 2.6002 4.63435 33.0001 1.6e-05 -1e-06 -40.1721 10.2676 22.6375 25.1998 0.000123 0.000432 19.3699 -10.6523 5.95173 
-3.07605 90.0712 -0.902169 49.2314 -81.4585 -38.6529 0.103456 1.85784 10.5485 1.48575 4.26738 -176.585 43.5 -4.2e-05 1e-05 -19.1117 -5.43664 -2.76251 42.3722 1.9e-05 3.55271e-15 76.6308 -1.12761 -2.81711 17.3 1.77636e-15 3e-06 21.4546 -1e-06 0.003093 0.103456 1.85782 -10.5485 10.5527 -3.22768 175.588 43.5 -2.7e-05 4e-06 -6.03887 11.6753 3.52508 42.3723 1.77636e-15 1e-05 82.5904 13.2185 -10.6654 17.3 -6e-06 1.7e-05 21.4546 -1.9e-05 -0.003116 6.90197 -2.60373 -3e-06 7.35678 0.549013 0.488385 12.5881 1e-05 8e-06 4.69065 1.22573 0.923491 12.3432 -1.8e-05 -5e-06 4.35061 1.34855 0.856745 25.8329 2.3e-05 7e-06 4.6893 -3.98304 0.170553 11.7666 -8e-06 -6e-06 -28.8552 -13.2785 8.89515 19.7459 -1.48035 6.0001 172.176 -9.67599 -104.922 11.2841 1.8e-05 -2e-05 -6.92029 -37.1806 26.6771 33 -1.3e-05 1.9e-05 -12.5832 8.61583 -17.9239 25.2 3.2e-05 1.1e-05 -0.250612 29.2841 3.28792 19.7461 -1.48036 -6.00008 -170.498 -5.66871 79.5798 11.2841 -7.10543e-15 -1e-06 29.4446 2.62291 4.65217 33.0001 1.6e-05 -1e-06 -40.1849 10.3345 22.6212 25.1998 0.000123 0.000432 19.3701 -10.6152 5.95398 
-3.07568 90.0714 -0.925479 49.0692 -81.5015 -38.8264 0.103456 1.85784 10.5485 1.50018 4.255 -176.577 43.5 -4.2e-05 1e-05 -19.0961 -5.45614 -2.7626 42.3722 1.9e-05 3.55271e-15 76.6298 -1.1438 -2.79231 17.3 0 3e-06 21.4546 -1e-06 0.003093 0.103456 1.85782 -10.5485 10.5616 -3.22716 175.601 43.5 -2.7e-05 4e-06 -6.02356 11.6753 3.52508 42.3723 -8.88178e-16 1e-05 82.5806 13.1973 -10.6404 17.3 -6e-06 1.7e-05 21.4546 -1.9e-05 -0.003116 6.90197 -2.60373 -3e-06 7.35678 0.549013 0.488385 12.5881 1e-05 8e-06 4.68467 1.22573 0.917875 12.3432 -1.8e-05 -5e-06 4.34457 1.34855 0.850898 25.8329 2.3e-05 7e-06 4.71069 -3.98299 0.170553 11.7666 -8e-06 -6e-06 -28.7901 -13.2767 8.89508 19.7459 -1.48035 6.0001 172.171 -9.68121 -104.924 11.2841 1.8e-05 -2e-05 -6.91109 -37.1942 26.6923 33 -1.3e-05 1.9e-05 -12.5658 8.66022 -17.9261 25.2 3.2e-05 1.1e-05 -0.286516 29.3098 3.28874 19.7461 -1.48036 -6.00008 -170.528 -5.68326 79.604 11.2841 7.10543e-15 -1e-06 29.3737 2.65059 4.59473 33.0001 1.6e-05 -1e-06 -40.2353 10.3579 22.6203 25.1998 0.000123 0.000432 19.4037 -10.5911 5.96379 
-3.07464 90.0688 -0.95099 48.9777 -81.5303 -38.9295 0.103456 1.85784 10.5485 1.51573 4.22602 -176.568 43.5 -4.2e-05 1e-05 -19.0915 -5.46952 -2.76266 42.3722 1.9e-05 0 76.646 -1.19143 -2.77364 17.3 -8.88178e-16 3e-06 21.4546 -1e-06 0.003093 0.103456 1.85782 -10.5485 10.5645 -3.21547 175.614 43.5 -2.7e-05 4e-06 -6.0325 11.6753 3.52508 42.3723 0 1e-05 82.5761 13.232 -10.6237 17.3 -6e-06 1.7e-05 21.4546 -1.9e-05 -0.003116 6.90197 -2.60373 -3e-06 7.35678 0.549013 0.488385 12.5881 1e-05 8e-06 4.67914 1.22574 0.910241 12.3432 -1.8e-05 -5e-06 4.33893 1.34855 0.847834 25.8329 2.3e-05 7e-06 4.72326 -3.999 0.176306 11.7666 -8e-06 -6e-06 -28.7736 -13.3042 8.8961 19.7459 -1.48035 6.0001 172.164 -9.68324 -104.905 11.2841 1.8e-05 -2e-05 -6.92116 -37.198 26.6958 33 -1.3e-05 1.9e-05 -12.57 8.68117 -17.9271 25.2 3.2e-05 1.1e-05 -0.324939 29.3189 3.28904 19.7461 -1.48036 -6.00008 -170.571 -5.6867 79.6314 11.2841 -7.10543e-15 -1e-06 29.341 2.74227 4.49034 33.0001 1.6e-05 -1e-06 -40.3379 10.4182 22.6158 25.1998 0.000123 0.000432 19.3755 -10.5288 5.94169 
-3.07366 90.0618 -0.980754 48.8832 -81.5484 -39.0332 0.103456 1.85784 10.5485 1.52672 4.21526 -176.557 43.5 -4.2e-05 1e-05 -19.1118 -5.48262 -2.76273 42.3722 1.9e-05 0 76.673 -1.19882 -2.75303 17.3 -1.77636e-15 3e-06 21.4546 -1e-06 0.003093 0.103456 1.85782 -10.5485 10.5679 -3.21163 175.622 43.5 -2.7e-05 4e-06 -6.06804 11.6683 3.52057 42.3723 8.88178e-16 1e-05 82.5949 13.2301 -10.6017 17.3 -6e-06 1.7e-05 21.4546 -1.9e-05 -0.003116 6.90197 -2.60373 -3e-06 7.36581 0.549013 0.488385 12.5881 1e-05 8e-06 4.69734 1.22574 0.90685 12.3432 -1.8e-05 -5e-06 4.35724 1.34855 0.845055 25.8329 2.3e-05 7e-06 4.70953 -4.02193 0.183546 11.7666 -8e-06 -6e-06 -28.8098 -13.3304 8.89355 19.7459 -1.48035 6.0001 172.163 -9.70531 -104.853 11.2841 1.8e-05 -2e-05 -6.9873 -37.1301 26.6622 33 -1.3e-05 1.9e-05 -12.5745 8.68629 -17.9274 25.2 3.2e-05 1.1e-05 -0.341965 29.3169 3.29122 19.7461 -1.48036 -6.00008 -170.597 -5.68268 79.6263 11.2841 0 -1e-06 29.2744 2.72481 4.46956 33.0001 1.6e-05 -1e-06 -40.3677 10.3856 22.6403 25.1998 0.000123 0.000432 19.3742 -10.5377 5.96478 
